<?xml version="1.0" encoding="utf-8"?>
<!-- Generator: Adobe Illustrator 22.0.1, SVG Export Plug-In . SVG Version: 6.00 Build 0)  -->
<svg version="1.1" id="Layer_1" xmlns="http://www.w3.org/2000/svg" xmlns:xlink="http://www.w3.org/1999/xlink" x="0px" y="0px"
	 viewBox="0 0 850.2 244.3" style="enable-background:new 0 0 850.2 244.3;" xml:space="preserve">
<style type="text/css">
	.st0{fill:url(#SVGID_1_);}
	.st1{fill:#FFFFFF;}
</style>
<g>
	<g>
		<linearGradient id="SVGID_1_" gradientUnits="userSpaceOnUse" x1="38.2535" y1="201.7464" x2="215.4027" y2="24.5972">
			<stop  offset="0" style="stop-color:#0C82C6"/>
			<stop  offset="0.761" style="stop-color:#667DB6"/>
		</linearGradient>
		<path class="st0" d="M81.6,219.7h72.5c33.8,0,61.3-27.4,61.3-61.3V24.6H81.6c-33.8,0-61.3,27.4-61.3,61.3v72.5
			C20.3,192.3,47.7,219.7,81.6,219.7z"/>
		<g>
			<path class="st1" d="M155.6,85.9c-0.4,0.2-0.8,0.4-1.1,0.7c-5.5,4.5-10.9,9-16.3,13.5c-6,4.9-12,9.8-17.9,14.8
				c-5.4,4.4-10.7,8.8-16.1,13.2c-6.1,5.1-12.3,10.1-18.4,15.2c-0.9,0.8-1.9,0.9-3,0.5c-7-2.5-13.9-4.9-20.9-7.3
				c-2.5-0.9-5-1.7-7.5-2.6c-0.7-0.3-1.4-0.6-1.9-1.1c-1.8-1.4-1.9-3.9-0.1-5.4c1.2-0.9,2.5-1.6,3.8-2.4c7-4,13.9-7.9,20.9-11.8
				c7-3.9,14.1-7.8,21.1-11.8c6.5-3.6,12.9-7.3,19.4-11c5.3-3,10.6-5.9,15.8-8.9c6.6-3.7,13.1-7.4,19.7-11.1
				c5.9-3.3,11.8-6.6,17.6-9.9c0.4-0.2,0.8-0.4,1.2-0.5c2.6-1,4.5,0.5,4.1,3.3c-0.4,2.7-0.9,5.3-1.3,8c-1.1,7.1-2.2,14.2-3.2,21.2
				c-1,6.8-2,13.6-3,20.5c-1.7,11.1-3.4,22.2-5,33.4c-0.9,5.7-1.7,11.4-2.6,17.2c-0.1,0.5-0.2,1-0.4,1.5c-1,3.4-3.7,4.6-7.2,3.4
				c-8.3-2.9-16.6-5.9-24.9-8.8c-2.7-0.9-5.3-1.9-8-2.8c-1.5-0.5-1.8-0.4-2.6,0.9c-2.8,4.5-5.5,9.1-8.3,13.6
				c-2.4,3.9-5,7.8-7.5,11.6c-0.5,0.8-0.9,1.8-2.2,1.5c-1.1-0.2-1.8-1.2-2-2.6c-0.1-0.6,0-1.2,0-1.8c0-8.5,0.1-17.1-0.1-25.6
				c-0.1-3.7,1.2-6.6,3.6-9.2c5.2-5.6,10.4-11.2,15.5-16.8c5.1-5.5,10.1-11,15.2-16.5c5.9-6.4,11.8-12.8,17.6-19.2
				c1.9-2,3.7-4.1,5.5-6.1c0.2-0.2,0.3-0.4,0.4-0.6C155.7,86,155.7,85.9,155.6,85.9z"/>
		</g>
	</g>
	<g>
		<path d="M271.4,72.7v86.2h44v18h-63.6V72.7H271.4z"/>
		<path d="M402.9,125.1H420v39.2c-10.5,8-26.2,13.6-40.4,13.6c-30.5,0-53.9-23.1-53.9-53c0-29.9,23.9-52.7,55.1-52.7
			c14.7,0,29.7,5.8,39.9,14.9l-11.1,14.6c-7.7-7.3-18.5-11.8-28.9-11.8c-19.7,0-35.1,15.3-35.1,35c0,19.8,15.6,35.2,35.3,35.2
			c7,0,15-2.5,22-6.6V125.1z"/>
		<path d="M490.4,172c-6,3.7-12.7,5.8-19.5,5.8c-12.7,0-22.9-7.4-22.9-23.8v-39.3H437l-0.1-14.2H448V78.7h18.8v21.9h22.3v14.2h-22.3
			v35.9c0,7.6,3.1,10.1,8.2,10.1c3.2,0,6.9-1.2,11.1-3.3L490.4,172z"/>
		<path d="M584.9,127.2V177h-19.1v-44.1c0-11.2-6.6-18-17.3-18c-12.8,0.1-20.6,9.8-20.6,22.9V177h-19V66.4h19v46
			c5.5-10.9,15.3-15.8,28.1-15.9C573.9,96.5,584.9,108.3,584.9,127.2z"/>
		<path d="M654.5,96.5v18.8c-16.5-1-26.5,8.8-26.5,23.2V177h-19V97.3h19v15.3C633.2,102.2,642.4,96.7,654.5,96.5z"/>
		<path d="M740.5,143.9H683c2.5,11.3,10.9,18.2,22.3,18.2c8,0,15.5-3.1,21-8.9l10.2,10.9c-7.7,8.6-19.1,13.7-32.8,13.7
			c-24.2,0-40.1-16.4-40.1-40.4c0-24.3,16.3-40.7,39.7-40.7C730.6,96.7,742.4,115,740.5,143.9z M723.3,130.9
			c-0.4-11.8-8.2-19.2-20-19.2c-11.2,0-19.1,7.4-20.8,19.2H723.3z"/>
		<path d="M829.7,143.9h-57.6c2.5,11.3,10.9,18.2,22.3,18.2c8,0,15.5-3.1,21-8.9l10.2,10.9c-7.7,8.6-19.1,13.7-32.8,13.7
			c-24.2,0-40.1-16.4-40.1-40.4c0-24.3,16.3-40.7,39.7-40.7C819.8,96.7,831.6,115,829.7,143.9z M812.5,130.9
			c-0.4-11.8-8.2-19.2-20-19.2c-11.2,0-19.1,7.4-20.8,19.2H812.5z"/>
	</g>
</g>
</svg>
