<?xml version="1.0" encoding="utf-8"?>
<!-- Generator: Adobe Illustrator 22.0.1, SVG Export Plug-In . SVG Version: 6.00 Build 0)  -->
<svg version="1.1" id="Layer_1" xmlns="http://www.w3.org/2000/svg" xmlns:xlink="http://www.w3.org/1999/xlink" x="0px" y="0px"
	 viewBox="0 0 195.1 195.1" style="enable-background:new 0 0 195.1 195.1;" xml:space="preserve">
<style type="text/css">
	.st0{fill:url(#SVGID_1_);}
	.st1{fill:#FFFFFF;}
	.st2{fill:url(#SVGID_2_);}
</style>
<g>
	<linearGradient id="SVGID_1_" gradientUnits="userSpaceOnUse" x1="17.95" y1="177.1492" x2="195.0992" y2="-1.165290e-12">
		<stop  offset="0" style="stop-color:#0C82C6"/>
		<stop  offset="0.761" style="stop-color:#667DB6"/>
	</linearGradient>
	<path class="st0" d="M61.3,195.1h72.5c33.8,0,61.3-27.4,61.3-61.3V0H61.3C27.4,0,0,27.4,0,61.3v72.5C0,167.7,27.4,195.1,61.3,195.1
		z"/>
	<g>
		<path class="st1" d="M135.3,61.3c-0.4,0.2-0.8,0.4-1.1,0.7c-5.5,4.5-10.9,9-16.3,13.5c-6,4.9-12,9.8-17.9,14.8
			c-5.4,4.4-10.7,8.8-16.1,13.2c-6.1,5.1-12.3,10.1-18.4,15.2c-0.9,0.8-1.9,0.9-3,0.5c-7-2.5-13.9-4.9-20.9-7.3
			c-2.5-0.9-5-1.7-7.5-2.6c-0.7-0.3-1.4-0.6-1.9-1.1c-1.8-1.4-1.9-3.9-0.1-5.4c1.2-0.9,2.5-1.6,3.8-2.4c7-4,13.9-7.9,20.9-11.8
			c7-3.9,14.1-7.8,21.1-11.8c6.5-3.6,12.9-7.3,19.4-11c5.3-3,10.6-5.9,15.8-8.9c6.6-3.7,13.1-7.4,19.7-11.1
			c5.9-3.3,11.8-6.6,17.6-9.9c0.4-0.2,0.8-0.4,1.2-0.5c2.6-1,4.5,0.5,4.1,3.3c-0.4,2.7-0.9,5.3-1.3,8c-1.1,7.1-2.2,14.2-3.2,21.2
			c-1,6.8-2,13.6-3,20.5c-1.7,11.1-3.4,22.2-5,33.4c-0.9,5.7-1.7,11.4-2.6,17.2c-0.1,0.5-0.2,1-0.4,1.5c-1,3.4-3.7,4.6-7.2,3.4
			c-8.3-2.9-16.6-5.9-24.9-8.8c-2.7-0.9-5.3-1.9-8-2.8c-1.5-0.5-1.8-0.4-2.6,0.9c-2.8,4.5-5.5,9.1-8.3,13.6c-2.4,3.9-5,7.8-7.5,11.6
			c-0.5,0.8-0.9,1.8-2.2,1.5c-1.1-0.2-1.8-1.2-2-2.6c-0.1-0.6,0-1.2,0-1.8c0-8.5,0.1-17.1-0.1-25.6c-0.1-3.7,1.2-6.6,3.6-9.2
			c5.2-5.6,10.4-11.2,15.5-16.8c5.1-5.5,10.1-11,15.2-16.5c5.9-6.4,11.8-12.8,17.6-19.2c1.9-2,3.7-4.1,5.5-6.1
			c0.2-0.2,0.3-0.4,0.4-0.6C135.4,61.4,135.4,61.3,135.3,61.3z"/>
	</g>
</g>
</svg>
